<mxfile host="65bd71144e">
    <diagram id="Vfe87MechSMbE3QbhghI" name="ページ1">
        <mxGraphModel dx="626" dy="1069" grid="0" gridSize="10" guides="1" tooltips="1" connect="1" arrows="1" fold="1" page="1" pageScale="1" pageWidth="500" pageHeight="500" background="#FFFFFF" math="1" shadow="0">
            <root>
                <mxCell id="0"/>
                <mxCell id="1" parent="0"/>
                <mxCell id="4" value="" style="endArrow=classic;html=1;strokeColor=#000000;" parent="1" edge="1">
                    <mxGeometry width="50" height="50" relative="1" as="geometry">
                        <mxPoint x="86" y="294" as="sourcePoint"/>
                        <mxPoint x="86" y="74" as="targetPoint"/>
                    </mxGeometry>
                </mxCell>
                <mxCell id="5" value="" style="endArrow=classic;html=1;strokeColor=#000000;" parent="1" edge="1">
                    <mxGeometry width="50" height="50" relative="1" as="geometry">
                        <mxPoint x="56" y="124" as="sourcePoint"/>
                        <mxPoint x="326" y="124" as="targetPoint"/>
                    </mxGeometry>
                </mxCell>
                <mxCell id="6" value="&lt;font color=&quot;#000000&quot; style=&quot;font-size: 20px;&quot;&gt;`x`&lt;br style=&quot;font-size: 20px;&quot;&gt;&lt;/font&gt;" style="text;html=1;align=center;verticalAlign=middle;whiteSpace=wrap;rounded=0;strokeWidth=1;fontSize=20;" parent="1" vertex="1">
                    <mxGeometry x="317" y="107" width="60" height="30" as="geometry"/>
                </mxCell>
                <mxCell id="7" value="&lt;font color=&quot;#000000&quot; style=&quot;font-size: 20px;&quot;&gt;`y`&lt;br style=&quot;font-size: 20px;&quot;&gt;&lt;/font&gt;" style="text;html=1;align=center;verticalAlign=middle;whiteSpace=wrap;rounded=0;strokeWidth=1;fontSize=20;" parent="1" vertex="1">
                    <mxGeometry x="56" y="34" width="60" height="30" as="geometry"/>
                </mxCell>
                <mxCell id="8" value="" style="endArrow=none;html=1;strokeColor=#000000;fontSize=20;fontColor=#000000;startArrow=none;strokeWidth=3;" parent="1" source="10" edge="1">
                    <mxGeometry width="50" height="50" relative="1" as="geometry">
                        <mxPoint x="186" y="264" as="sourcePoint"/>
                        <mxPoint x="86" y="124" as="targetPoint"/>
                    </mxGeometry>
                </mxCell>
                <mxCell id="9" value="" style="endArrow=none;html=1;strokeColor=#000000;fontSize=20;fontColor=#000000;startArrow=none;strokeWidth=3;" parent="1" source="13" edge="1">
                    <mxGeometry width="50" height="50" relative="1" as="geometry">
                        <mxPoint x="326" y="364" as="sourcePoint"/>
                        <mxPoint x="186" y="264" as="targetPoint"/>
                    </mxGeometry>
                </mxCell>
                <mxCell id="12" value="" style="endArrow=none;html=1;strokeColor=#000000;fontSize=20;fontColor=#000000;" parent="1" target="10" edge="1">
                    <mxGeometry width="50" height="50" relative="1" as="geometry">
                        <mxPoint x="186" y="264" as="sourcePoint"/>
                        <mxPoint x="86" y="124" as="targetPoint"/>
                    </mxGeometry>
                </mxCell>
                <mxCell id="10" value="" style="ellipse;whiteSpace=wrap;html=1;strokeWidth=1;fontSize=20;fontColor=#000000;fillStyle=solid;fillColor=#000000;strokeColor=#000000;" parent="1" vertex="1">
                    <mxGeometry x="176" y="254" width="20" height="20" as="geometry"/>
                </mxCell>
                <mxCell id="14" value="" style="endArrow=none;html=1;strokeColor=#000000;fontSize=20;fontColor=#000000;" parent="1" target="13" edge="1">
                    <mxGeometry width="50" height="50" relative="1" as="geometry">
                        <mxPoint x="326" y="364" as="sourcePoint"/>
                        <mxPoint x="186" y="264" as="targetPoint"/>
                    </mxGeometry>
                </mxCell>
                <mxCell id="13" value="" style="ellipse;whiteSpace=wrap;html=1;strokeWidth=1;fontSize=20;fontColor=#000000;fillStyle=solid;fillColor=#000000;strokeColor=#000000;" parent="1" vertex="1">
                    <mxGeometry x="317" y="354" width="20" height="20" as="geometry"/>
                </mxCell>
                <mxCell id="15" value="&lt;font color=&quot;#000000&quot; style=&quot;font-size: 20px;&quot;&gt;`T`&lt;br style=&quot;font-size: 20px;&quot;&gt;&lt;/font&gt;" style="text;html=1;align=center;verticalAlign=middle;whiteSpace=wrap;rounded=0;strokeWidth=1;fontSize=20;" parent="1" vertex="1">
                    <mxGeometry x="100" y="200" width="60" height="30" as="geometry"/>
                </mxCell>
                <mxCell id="16" value="&lt;font color=&quot;#000000&quot; style=&quot;font-size: 20px;&quot;&gt;`N`&lt;br style=&quot;font-size: 20px;&quot;&gt;&lt;/font&gt;" style="text;html=1;align=center;verticalAlign=middle;whiteSpace=wrap;rounded=0;strokeWidth=1;fontSize=20;" parent="1" vertex="1">
                    <mxGeometry x="226" y="319" width="60" height="30" as="geometry"/>
                </mxCell>
                <mxCell id="17" value="&lt;font color=&quot;#000000&quot; style=&quot;font-size: 20px;&quot;&gt;`mg`&lt;br style=&quot;font-size: 20px;&quot;&gt;&lt;/font&gt;" style="text;html=1;align=center;verticalAlign=middle;whiteSpace=wrap;rounded=0;strokeWidth=1;fontSize=20;" parent="1" vertex="1">
                    <mxGeometry x="156" y="333" width="60" height="30" as="geometry"/>
                </mxCell>
                <mxCell id="18" value="&lt;font color=&quot;#000000&quot; style=&quot;font-size: 20px;&quot;&gt;`Mg`&lt;br style=&quot;font-size: 20px;&quot;&gt;&lt;/font&gt;" style="text;html=1;align=center;verticalAlign=middle;whiteSpace=wrap;rounded=0;strokeWidth=1;fontSize=20;" parent="1" vertex="1">
                    <mxGeometry x="297" y="431" width="60" height="30" as="geometry"/>
                </mxCell>
                <mxCell id="19" value="" style="endArrow=classic;html=1;strokeColor=#000000;fontSize=20;fontColor=#000000;" parent="1" edge="1">
                    <mxGeometry width="50" height="50" relative="1" as="geometry">
                        <mxPoint x="336" y="363.5" as="sourcePoint"/>
                        <mxPoint x="396" y="364" as="targetPoint"/>
                    </mxGeometry>
                </mxCell>
                <mxCell id="20" value="&lt;font color=&quot;#000000&quot; style=&quot;font-size: 20px;&quot;&gt;`F`&lt;br style=&quot;font-size: 20px;&quot;&gt;&lt;/font&gt;" style="text;html=1;align=center;verticalAlign=middle;whiteSpace=wrap;rounded=0;strokeWidth=1;fontSize=20;" parent="1" vertex="1">
                    <mxGeometry x="385" y="349" width="60" height="30" as="geometry"/>
                </mxCell>
                <mxCell id="21" value="&lt;font color=&quot;#000000&quot; style=&quot;font-size: 20px;&quot;&gt;`\theta`&lt;br style=&quot;font-size: 20px;&quot;&gt;&lt;/font&gt;" style="text;html=1;align=center;verticalAlign=middle;whiteSpace=wrap;rounded=0;strokeWidth=1;fontSize=20;" parent="1" vertex="1">
                    <mxGeometry x="70" y="157" width="60" height="30" as="geometry"/>
                </mxCell>
                <mxCell id="25" value="" style="endArrow=none;html=1;strokeColor=#000000;strokeWidth=1;fontSize=20;fontColor=#000000;curved=1;" parent="1" edge="1">
                    <mxGeometry width="50" height="50" relative="1" as="geometry">
                        <mxPoint x="86" y="161" as="sourcePoint"/>
                        <mxPoint x="106" y="153" as="targetPoint"/>
                        <Array as="points">
                            <mxPoint x="99" y="160"/>
                        </Array>
                    </mxGeometry>
                </mxCell>
                <mxCell id="26" value="" style="endArrow=none;html=1;strokeColor=#000000;strokeWidth=1;fontSize=20;fontColor=#000000;curved=1;endFill=0;startArrow=block;startFill=1;" parent="1" edge="1">
                    <mxGeometry width="50" height="50" relative="1" as="geometry">
                        <mxPoint x="186" y="334" as="sourcePoint"/>
                        <mxPoint x="185.75" y="274" as="targetPoint"/>
                    </mxGeometry>
                </mxCell>
                <mxCell id="27" value="" style="endArrow=none;html=1;strokeColor=#000000;strokeWidth=1;fontSize=20;fontColor=#000000;curved=1;" parent="1" edge="1">
                    <mxGeometry width="50" height="50" relative="1" as="geometry">
                        <mxPoint x="186" y="304" as="sourcePoint"/>
                        <mxPoint x="216" y="284" as="targetPoint"/>
                        <Array as="points">
                            <mxPoint x="206" y="299"/>
                        </Array>
                    </mxGeometry>
                </mxCell>
                <mxCell id="29" value="" style="endArrow=none;html=1;strokeColor=#000000;strokeWidth=1;fontSize=20;fontColor=#000000;curved=1;endFill=0;startArrow=block;startFill=1;" parent="1" edge="1">
                    <mxGeometry width="50" height="50" relative="1" as="geometry">
                        <mxPoint x="326.75" y="431" as="sourcePoint"/>
                        <mxPoint x="326.5" y="371" as="targetPoint"/>
                    </mxGeometry>
                </mxCell>
                <mxCell id="42" value="&lt;font color=&quot;#000000&quot; style=&quot;font-size: 20px;&quot;&gt;`\phi`&lt;br style=&quot;font-size: 20px;&quot;&gt;&lt;/font&gt;" style="text;html=1;align=center;verticalAlign=middle;whiteSpace=wrap;rounded=0;strokeWidth=1;fontSize=20;" vertex="1" parent="1">
                    <mxGeometry x="179" y="292" width="60" height="30" as="geometry"/>
                </mxCell>
                <mxCell id="43" value="&lt;font color=&quot;#000000&quot; style=&quot;font-size: 20px;&quot;&gt;`A`&lt;br style=&quot;font-size: 20px;&quot;&gt;&lt;/font&gt;" style="text;html=1;align=center;verticalAlign=middle;whiteSpace=wrap;rounded=0;strokeWidth=1;fontSize=20;" vertex="1" parent="1">
                    <mxGeometry x="168" y="227" width="60" height="30" as="geometry"/>
                </mxCell>
                <mxCell id="44" value="&lt;font color=&quot;#000000&quot; style=&quot;font-size: 20px;&quot;&gt;`B`&lt;br style=&quot;font-size: 20px;&quot;&gt;&lt;/font&gt;" style="text;html=1;align=center;verticalAlign=middle;whiteSpace=wrap;rounded=0;strokeWidth=1;fontSize=20;" vertex="1" parent="1">
                    <mxGeometry x="300" y="322" width="60" height="30" as="geometry"/>
                </mxCell>
                <mxCell id="45" value="&lt;font color=&quot;#000000&quot; style=&quot;font-size: 20px;&quot;&gt;`O`&lt;br style=&quot;font-size: 20px;&quot;&gt;&lt;/font&gt;" style="text;html=1;align=center;verticalAlign=middle;whiteSpace=wrap;rounded=0;strokeWidth=1;fontSize=20;" vertex="1" parent="1">
                    <mxGeometry x="40" y="127" width="60" height="30" as="geometry"/>
                </mxCell>
            </root>
        </mxGraphModel>
    </diagram>
</mxfile>